G04 Layer: TopSolderMaskLayer*
G04 EasyEDA v6.5.22, 2023-03-30 23:48:17*
G04 8450ab88c4f44046a07a984ff5d0ea80,f0b2f3ec3a9e47b7860458d5da5a3361,10*
G04 Gerber Generator version 0.2*
G04 Scale: 100 percent, Rotated: No, Reflected: No *
G04 Dimensions in inches *
G04 leading zeros omitted , absolute positions ,3 integer and 6 decimal *
%FSLAX36Y36*%
%MOIN*%

%AMMACRO1*1,1,$1,$2,$3*1,1,$1,$4,$5*1,1,$1,0-$2,0-$3*1,1,$1,0-$4,0-$5*20,1,$1,$2,$3,$4,$5,0*20,1,$1,$4,$5,0-$2,0-$3,0*20,1,$1,0-$2,0-$3,0-$4,0-$5,0*20,1,$1,0-$4,0-$5,$2,$3,0*4,1,4,$2,$3,$4,$5,0-$2,0-$3,0-$4,0-$5,$2,$3,0*%
%ADD10MACRO1,0.004X-0.0295X-0.0295X0.0295X-0.0295*%
%ADD11C,0.0631*%
%ADD12C,0.0749*%
%ADD13MACRO1,0.004X-0.0354X0.0354X-0.0354X-0.0354*%
%ADD14MACRO1,0.004X0.0295X0.0295X-0.0295X0.0295*%
%ADD15C,0.0709*%
%ADD16MACRO1,0.004X-0.031X-0.0335X0.031X-0.0335*%
%ADD17C,0.0630*%
%ADD18MACRO1,0.004X0.0354X-0.0354X-0.0354X-0.0354*%
%ADD19MACRO1,0.004X-0.0354X0.0354X0.0354X0.0354*%
%ADD20C,0.0640*%
%ADD21C,0.0827*%
%ADD22MACRO1,0.004X-0.0246X-0.0197X-0.0246X0.0197*%
%ADD23R,0.0532X0.0434*%
%ADD24MACRO1,0.004X-0.0271X0.0223X0.0271X0.0223*%
%ADD25MACRO1,0.004X-0.0271X-0.0223X0.0271X-0.0223*%
%ADD26C,0.0552*%
%ADD27C,0.1290*%
%ADD28C,0.0138*%

%LPD*%
D10*
G01*
X1105000Y100000D03*
D11*
G01*
X1205000Y100000D03*
G01*
X1305000Y100000D03*
G01*
X1405000Y100000D03*
G01*
X1505000Y100000D03*
G01*
X1605000Y100000D03*
G01*
X1705000Y100000D03*
G01*
X1805000Y100000D03*
D10*
G01*
X2000000Y100000D03*
D11*
G01*
X2100000Y100000D03*
G01*
X2200000Y100000D03*
G01*
X2300000Y100000D03*
G01*
X2400000Y100000D03*
G01*
X2500000Y100000D03*
G01*
X2600000Y100000D03*
G01*
X2700000Y100000D03*
D10*
G01*
X2900000Y100000D03*
D11*
G01*
X3000000Y100000D03*
G01*
X3100000Y100000D03*
G01*
X3200000Y100000D03*
G01*
X3300000Y100000D03*
G01*
X3400000Y100000D03*
G01*
X3500000Y100000D03*
G01*
X3600000Y100000D03*
D12*
G01*
X3700000Y300000D03*
G01*
X3800000Y300000D03*
G01*
X3700000Y400000D03*
G01*
X3800000Y400000D03*
G01*
X3700000Y500000D03*
G01*
X3800000Y500000D03*
G01*
X3700000Y600000D03*
G01*
X3800000Y600000D03*
G01*
X3700000Y700000D03*
G01*
X3800000Y700000D03*
G01*
X3700000Y800000D03*
G01*
X3800000Y800000D03*
G01*
X3700000Y900000D03*
G01*
X3800000Y900000D03*
G01*
X3700000Y1000000D03*
G01*
X3800000Y1000000D03*
G01*
X3700000Y1100000D03*
G01*
X3800000Y1100000D03*
G01*
X3700000Y1200000D03*
G01*
X3800000Y1200000D03*
G01*
X3700000Y1300000D03*
G01*
X3800000Y1300000D03*
G01*
X3700000Y1400000D03*
G01*
X3800000Y1400000D03*
G01*
X3700000Y1500000D03*
G01*
X3800000Y1500000D03*
G01*
X3700000Y1600000D03*
G01*
X3800000Y1600000D03*
G01*
X3700000Y1700000D03*
G01*
X3800000Y1700000D03*
G01*
X3700000Y1800000D03*
G01*
X3800000Y1800000D03*
G01*
X3700000Y1900000D03*
G01*
X3800000Y1900000D03*
G01*
X3700000Y2000000D03*
D13*
G01*
X3800000Y2000000D03*
D14*
G01*
X3389999Y2000000D03*
D11*
G01*
X3290000Y2000000D03*
G01*
X3190000Y2000000D03*
G01*
X3090000Y2000000D03*
G01*
X2990000Y2000000D03*
G01*
X2890000Y2000000D03*
G01*
X2790000Y2000000D03*
G01*
X2690000Y2000000D03*
D14*
G01*
X2499999Y2000000D03*
D11*
G01*
X2400000Y2000000D03*
G01*
X2300000Y2000000D03*
G01*
X2200000Y2000000D03*
G01*
X2100000Y2000000D03*
G01*
X2000000Y2000000D03*
G01*
X1900000Y2000000D03*
G01*
X1800000Y2000000D03*
D15*
G01*
X1630000Y2000000D03*
G01*
X1530000Y2000000D03*
G01*
X1430000Y2000000D03*
G01*
X1330000Y2000000D03*
G01*
X1230000Y2000000D03*
G01*
X1130000Y2000000D03*
G01*
X1030000Y2000000D03*
G01*
X930000Y2000000D03*
G01*
X830000Y2000000D03*
D16*
G01*
X730000Y2000000D03*
D17*
G01*
X2170000Y1850000D03*
G01*
X2170000Y1750000D03*
G01*
X220000Y1855000D03*
G01*
X220000Y1755000D03*
G01*
X3455000Y255000D03*
G01*
X3455000Y355000D03*
G01*
X2460000Y255000D03*
G01*
X2460000Y355000D03*
G01*
X1470000Y255000D03*
G01*
X1470000Y355000D03*
D18*
G01*
X1970000Y1805000D03*
D12*
G01*
X1870000Y1805003D03*
G01*
X1770000Y1805003D03*
G01*
X1670000Y1805003D03*
D18*
G01*
X2960000Y1805000D03*
D12*
G01*
X2860000Y1805003D03*
G01*
X2760000Y1805003D03*
G01*
X2660000Y1805003D03*
D19*
G01*
X695000Y300000D03*
D12*
G01*
X795000Y299996D03*
G01*
X895000Y299996D03*
G01*
X995000Y299996D03*
D19*
G01*
X1670000Y300000D03*
D12*
G01*
X1770000Y299996D03*
G01*
X1870000Y299996D03*
G01*
X1970000Y299996D03*
D19*
G01*
X2660000Y300000D03*
D12*
G01*
X2760000Y299996D03*
G01*
X2860000Y299996D03*
G01*
X2960000Y299996D03*
D20*
G01*
X1670000Y1610000D03*
G01*
X1570000Y1610000D03*
G01*
X1470000Y1610000D03*
G01*
X1770000Y1610000D03*
G01*
X1870000Y1610000D03*
G01*
X1970000Y1610000D03*
G01*
X2070000Y1610000D03*
G01*
X2170000Y1610000D03*
G01*
X2170000Y1110000D03*
G01*
X2070000Y1110000D03*
G01*
X1970000Y1110000D03*
G01*
X1870000Y1110000D03*
G01*
X1770000Y1110000D03*
G01*
X1670000Y1110000D03*
G01*
X1570000Y1110000D03*
G01*
X1470000Y1110000D03*
G01*
X2660000Y1610000D03*
G01*
X2560000Y1610000D03*
G01*
X2460000Y1610000D03*
G01*
X2760000Y1610000D03*
G01*
X2860000Y1610000D03*
G01*
X2960000Y1610000D03*
G01*
X3060000Y1610000D03*
G01*
X3160000Y1610000D03*
G01*
X3160000Y1110000D03*
G01*
X3060000Y1110000D03*
G01*
X2960000Y1110000D03*
G01*
X2860000Y1110000D03*
G01*
X2760000Y1110000D03*
G01*
X2660000Y1110000D03*
G01*
X2560000Y1110000D03*
G01*
X2460000Y1110000D03*
G01*
X995000Y490000D03*
G01*
X1095000Y490000D03*
G01*
X1195000Y490000D03*
G01*
X895000Y490000D03*
G01*
X795000Y490000D03*
G01*
X695000Y490000D03*
G01*
X595000Y490000D03*
G01*
X495000Y490000D03*
G01*
X495000Y990000D03*
G01*
X595000Y990000D03*
G01*
X695000Y990000D03*
G01*
X795000Y990000D03*
G01*
X895000Y990000D03*
G01*
X995000Y990000D03*
G01*
X1095000Y990000D03*
G01*
X1195000Y990000D03*
G01*
X2960000Y490000D03*
G01*
X3060000Y490000D03*
G01*
X3160000Y490000D03*
G01*
X2860000Y490000D03*
G01*
X2760000Y490000D03*
G01*
X2660000Y490000D03*
G01*
X2560000Y490000D03*
G01*
X2460000Y490000D03*
G01*
X2460000Y990000D03*
G01*
X2560000Y990000D03*
G01*
X2660000Y990000D03*
G01*
X2760000Y990000D03*
G01*
X2860000Y990000D03*
G01*
X2960000Y990000D03*
G01*
X3060000Y990000D03*
G01*
X3160000Y990000D03*
D17*
G01*
X1195000Y1860000D03*
G01*
X1195000Y1760000D03*
D21*
G01*
X145000Y750000D03*
G01*
X145000Y650000D03*
D18*
G01*
X995000Y1805000D03*
D12*
G01*
X895000Y1805000D03*
G01*
X795000Y1805000D03*
G01*
X695000Y1805000D03*
D22*
G01*
X145003Y366692D03*
D23*
G01*
X145000Y453310D03*
D24*
G01*
X145000Y170627D03*
D25*
G01*
X145000Y249372D03*
D20*
G01*
X695000Y1610000D03*
G01*
X595000Y1610000D03*
G01*
X495000Y1610000D03*
G01*
X795000Y1610000D03*
G01*
X895000Y1610000D03*
G01*
X995000Y1610000D03*
G01*
X1095000Y1610000D03*
G01*
X1195000Y1610000D03*
G01*
X1195000Y1110000D03*
G01*
X1095000Y1110000D03*
G01*
X995000Y1110000D03*
G01*
X895000Y1110000D03*
G01*
X795000Y1110000D03*
G01*
X695000Y1110000D03*
G01*
X595000Y1110000D03*
G01*
X495000Y1110000D03*
D26*
G01*
X1470000Y1765630D03*
G01*
X1470000Y1844369D03*
G01*
X2460000Y1765630D03*
G01*
X2460000Y1844369D03*
G01*
X495000Y1765630D03*
G01*
X495000Y1844369D03*
G01*
X3160000Y344369D03*
G01*
X3160000Y265630D03*
G01*
X2170000Y339369D03*
G01*
X2170000Y260630D03*
G01*
X1195000Y344369D03*
G01*
X1195000Y265630D03*
D20*
G01*
X1970000Y490000D03*
G01*
X2070000Y490000D03*
G01*
X2170000Y490000D03*
G01*
X1870000Y490000D03*
G01*
X1770000Y490000D03*
G01*
X1670000Y490000D03*
G01*
X1570000Y490000D03*
G01*
X1470000Y490000D03*
G01*
X1470000Y990000D03*
G01*
X1570000Y990000D03*
G01*
X1670000Y990000D03*
G01*
X1770000Y990000D03*
G01*
X1870000Y990000D03*
G01*
X1970000Y990000D03*
G01*
X2070000Y990000D03*
G01*
X2170000Y990000D03*
D27*
G01*
X550000Y100000D03*
G01*
X600000Y2000000D03*
G01*
X3550000Y2000000D03*
G01*
X3800000Y100000D03*
M02*
