M48
INCH,LZ
;FILE_FORMAT=2:4
;TYPE=PLATED
;Layer: PTH_Through
;EasyEDA v6.5.22, 2023-03-30 23:48:17
;8450ab88c4f44046a07a984ff5d0ea80,f0b2f3ec3a9e47b7860458d5da5a3361,10
;Gerber Generator version 0.2
;Holesize 1 = 0.0300 inch
T01C0.0300
;Holesize 2 = 0.0320 inch
T02C0.0320
;Holesize 3 = 0.0350 inch
T03C0.0350
;Holesize 4 = 0.0390 inch
T04C0.0390
;Holesize 5 = 0.0430 inch
T05C0.0430
;Holesize 6 = 0.0470 inch
T06C0.0470
;Holesize 7 = 0.1250 inch
T07C0.1250
%
G05
G90
T01
X016700Y016100
X015700Y016100
X014700Y016100
X017700Y016100
X018700Y016100
X019700Y016100
X020700Y016100
X021700Y016100
X021700Y011100
X020700Y011100
X019700Y011100
X018700Y011100
X017700Y011100
X016700Y011100
X015700Y011100
X014700Y011100
X026600Y016100
X025600Y016100
X024600Y016100
X027600Y016100
X028600Y016100
X029600Y016100
X030600Y016100
X031600Y016100
X031600Y011100
X030600Y011100
X029600Y011100
X028600Y011100
X027600Y011100
X026600Y011100
X025600Y011100
X024600Y011100
X009950Y004900
X010950Y004900
X011950Y004900
X008950Y004900
X007950Y004900
X006950Y004900
X005950Y004900
X004950Y004900
X004950Y009900
X005950Y009900
X006950Y009900
X007950Y009900
X008950Y009900
X009950Y009900
X010950Y009900
X011950Y009900
X029600Y004900
X030600Y004900
X031600Y004900
X028600Y004900
X027600Y004900
X026600Y004900
X025600Y004900
X024600Y004900
X024600Y009900
X025600Y009900
X026600Y009900
X027600Y009900
X028600Y009900
X029600Y009900
X030600Y009900
X031600Y009900
X006950Y016100
X005950Y016100
X004950Y016100
X007950Y016100
X008950Y016100
X009950Y016100
X010950Y016100
X011950Y016100
X011950Y011100
X010950Y011100
X009950Y011100
X008950Y011100
X007950Y011100
X006950Y011100
X005950Y011100
X004950Y011100
X019700Y004900
X020700Y004900
X021700Y004900
X018700Y004900
X017700Y004900
X016700Y004900
X015700Y004900
X014700Y004900
X014700Y009900
X015700Y009900
X016700Y009900
X017700Y009900
X018700Y009900
X019700Y009900
X020700Y009900
X021700Y009900
T02
X014700Y017656
X014700Y018444
X024600Y017656
X024600Y018444
X004950Y017656
X004950Y018444
X031600Y003444
X031600Y002656
X021700Y003394
X021700Y002606
X011950Y003444
X011950Y002656
T03
X021700Y018500
X021700Y017500
X002200Y018550
X002200Y017550
X034550Y002550
X034550Y003550
X024600Y002550
X024600Y003550
X014700Y002550
X014700Y003550
X011950Y018600
X011950Y017600
T04
X011050Y001000
X012050Y001000
X013050Y001000
X014050Y001000
X015050Y001000
X016050Y001000
X017050Y001000
X018050Y001000
X020000Y001000
X021000Y001000
X022000Y001000
X023000Y001000
X024000Y001000
X025000Y001000
X026000Y001000
X027000Y001000
X029000Y001000
X030000Y001000
X031000Y001000
X032000Y001000
X033000Y001000
X034000Y001000
X035000Y001000
X036000Y001000
X033900Y020000
X032900Y020000
X031900Y020000
X030900Y020000
X029900Y020000
X028900Y020000
X027900Y020000
X026900Y020000
X025000Y020000
X024000Y020000
X023000Y020000
X022000Y020000
X021000Y020000
X020000Y020000
X019000Y020000
X018000Y020000
X019700Y018050
X018700Y018050
X017700Y018050
X016700Y018050
X029600Y018050
X028600Y018050
X027600Y018050
X026600Y018050
X006950Y003000
X007950Y003000
X008950Y003000
X009950Y003000
X016700Y003000
X017700Y003000
X018700Y003000
X019700Y003000
X026600Y003000
X027600Y003000
X028600Y003000
X029600Y003000
X009950Y018050
X008950Y018050
X007950Y018050
X006950Y018050
T05
X037000Y003000
X038000Y003000
X037000Y004000
X038000Y004000
X037000Y005000
X038000Y005000
X037000Y006000
X038000Y006000
X037000Y007000
X038000Y007000
X037000Y008000
X038000Y008000
X037000Y009000
X038000Y009000
X037000Y010000
X038000Y010000
X037000Y011000
X038000Y011000
X037000Y012000
X038000Y012000
X037000Y013000
X038000Y013000
X037000Y014000
X038000Y014000
X037000Y015000
X038000Y015000
X037000Y016000
X038000Y016000
X037000Y017000
X038000Y017000
X037000Y018000
X038000Y018000
X037000Y019000
X038000Y019000
X037000Y020000
X038000Y020000
X016300Y020000
X015300Y020000
X014300Y020000
X013300Y020000
X012300Y020000
X011300Y020000
X010300Y020000
X009300Y020000
X008300Y020000
X007300Y020000
T06
X001450Y007500
X001450Y006500
T07
X005500Y001000
X006000Y020000
X035500Y020000
X038000Y001000
M30
